<?xml version="1.0" encoding="UTF-8" standalone="no"?>
<!DOCTYPE svg PUBLIC "-//W3C//DTD SVG 1.1//EN" "http://www.w3.org/Graphics/SVG/1.1/DTD/svg11.dtd">
<svg xmlns:xlink="http://www.w3.org/1999/xlink" version="1.1" viewBox="0 0 252 252" width="252" height="252" xmlns="http://www.w3.org/2000/svg">
  <symbol id="_blank_v0" viewBox="0 0 36 36" overflow="visible">
  </symbol>
  <symbol id="_blank_v1" viewBox="0 0 1 36" overflow="visible">
  </symbol>
  <symbol id="_36_v0" viewBox="0 0 36 36" style="overflow: visible">
    <text style="font-family: Myriad Pro, sans-serif; font-size: 24" x="18" y="26" text-anchor="middle">
      6
    </text>
  </symbol>
  <symbol id="_32_v0" viewBox="0 0 36 36" style="overflow: visible">
    <text style="font-family: Myriad Pro, sans-serif; font-size: 24" x="18" y="26" text-anchor="middle">
      2
    </text>
  </symbol>
  <symbol id="_35_v0" viewBox="0 0 36 36" style="overflow: visible">
    <text style="font-family: Myriad Pro, sans-serif; font-size: 24" x="18" y="26" text-anchor="middle">
      5
    </text>
  </symbol>
  <symbol id="_blank_v2" viewBox="0 0 36 1" overflow="visible">
  </symbol>
  <symbol id="_2B_v0" viewBox="0 0 1 1" style="overflow: visible">
    <line x1="0" x2="18" stroke="black" stroke-width="1"/>
    <line y1="0" y2="9" stroke="black" stroke-width="1"/>
  </symbol>
  <symbol id="_2B_v1" viewBox="0 0 1 1" style="overflow: visible">
    <line x1="-18" x2="18" stroke="black" stroke-width="1"/>
    <line y1="0" y2="9" stroke="black" stroke-width="1"/>
  </symbol>
  <symbol id="_2B_v2" viewBox="0 0 1 1" style="overflow: visible">
    <line x1="-18" x2="0" stroke="black" stroke-width="1"/>
    <line y1="0" y2="18" stroke="black" stroke-width="1"/>
  </symbol>
  <symbol id="_34_v0" viewBox="0 0 36 36" style="overflow: visible">
    <text style="font-family: Myriad Pro, sans-serif; font-size: 24" x="18" y="26" text-anchor="middle">
      4
    </text>
  </symbol>
  <symbol id="s_v0" viewBox="0 0 1 36" overflow="visible">
  </symbol>
  <symbol id="_2B_v3" viewBox="0 0 1 1" style="overflow: visible">
    <line x1="0" x2="9" stroke="black" stroke-width="1"/>
    <line y1="-9" y2="9" stroke="black" stroke-width="1"/>
  </symbol>
  <symbol id="_2B_v4" viewBox="0 0 1 1" style="overflow: visible">
    <line x1="-9" x2="9" stroke="black" stroke-width="1"/>
    <line y1="-9" y2="9" stroke="black" stroke-width="1"/>
  </symbol>
  <symbol id="_2B_v5" viewBox="0 0 1 1" style="overflow: visible">
    <line x1="-9" x2="0" stroke="black" stroke-width="1"/>
    <line y1="-18" y2="18" stroke="black" stroke-width="1"/>
  </symbol>
  <symbol id="_2B_v6" viewBox="0 0 1 1" style="overflow: visible">
    <line x1="0" x2="9" stroke="black" stroke-width="1"/>
    <line y1="-9" y2="18" stroke="black" stroke-width="1"/>
  </symbol>
  <symbol id="_2B_v7" viewBox="0 0 1 1" style="overflow: visible">
    <line x1="0" x2="9" stroke="black" stroke-width="1"/>
    <line y1="-18" y2="18" stroke="black" stroke-width="1"/>
  </symbol>
  <symbol id="_2B_v8" viewBox="0 0 1 1" style="overflow: visible">
    <line x1="0" x2="18" stroke="black" stroke-width="1"/>
    <line y1="-18" y2="0" stroke="black" stroke-width="1"/>
  </symbol>
  <symbol id="_2B_v9" viewBox="0 0 1 1" style="overflow: visible">
    <line x1="-18" x2="18" stroke="black" stroke-width="1"/>
    <line y1="-9" y2="0" stroke="black" stroke-width="1"/>
  </symbol>
  <symbol id="_2B_v10" viewBox="0 0 1 1" style="overflow: visible">
    <line x1="-18" x2="0" stroke="black" stroke-width="1"/>
    <line y1="-18" y2="0" stroke="black" stroke-width="1"/>
  </symbol>
  <use xlink:href="#_blank_v0" x="0" y="0" width="36" height="36"/>
  <use xlink:href="#_blank_v1" x="36" y="0" width="1" height="36"/>
  <use xlink:href="#_36_v0" x="36" y="0" width="36" height="36"/>
  <use xlink:href="#_blank_v1" x="72" y="0" width="1" height="36"/>
  <use xlink:href="#_36_v0" x="72" y="0" width="36" height="36"/>
  <use xlink:href="#_blank_v1" x="108" y="0" width="1" height="36"/>
  <use xlink:href="#_32_v0" x="108" y="0" width="36" height="36"/>
  <use xlink:href="#_blank_v1" x="144" y="0" width="1" height="36"/>
  <use xlink:href="#_35_v0" x="144" y="0" width="36" height="36"/>
  <use xlink:href="#_blank_v1" x="180" y="0" width="1" height="36"/>
  <use xlink:href="#_36_v0" x="180" y="0" width="36" height="36"/>
  <use xlink:href="#_blank_v1" x="216" y="0" width="1" height="36"/>
  <use xlink:href="#_35_v0" x="216" y="0" width="36" height="36"/>
  <use xlink:href="#_blank_v1" x="252" y="0" width="1" height="36"/>
  <use xlink:href="#_blank_v2" x="0" y="36" width="36" height="1"/>
  <use xlink:href="#_2B_v0" x="36" y="36" width="1" height="1"/>
  <use xlink:href="#_blank_v2" x="36" y="36" width="36" height="1"/>
  <use xlink:href="#_2B_v1" x="72" y="36" width="1" height="1"/>
  <use xlink:href="#_blank_v2" x="72" y="36" width="36" height="1"/>
  <use xlink:href="#_2B_v1" x="108" y="36" width="1" height="1"/>
  <use xlink:href="#_blank_v2" x="108" y="36" width="36" height="1"/>
  <use xlink:href="#_2B_v1" x="144" y="36" width="1" height="1"/>
  <use xlink:href="#_blank_v2" x="144" y="36" width="36" height="1"/>
  <use xlink:href="#_2B_v1" x="180" y="36" width="1" height="1"/>
  <use xlink:href="#_blank_v2" x="180" y="36" width="36" height="1"/>
  <use xlink:href="#_2B_v1" x="216" y="36" width="1" height="1"/>
  <use xlink:href="#_blank_v2" x="216" y="36" width="36" height="1"/>
  <use xlink:href="#_2B_v2" x="252" y="36" width="1" height="1"/>
  <use xlink:href="#_34_v0" x="0" y="36" width="36" height="36"/>
  <use xlink:href="#s_v0" x="36" y="36" width="1" height="36"/>
  <use xlink:href="#_blank_v0" x="36" y="36" width="36" height="36"/>
  <use xlink:href="#_blank_v1" x="72" y="36" width="1" height="36"/>
  <use xlink:href="#_blank_v0" x="72" y="36" width="36" height="36"/>
  <use xlink:href="#_blank_v1" x="108" y="36" width="1" height="36"/>
  <use xlink:href="#_blank_v0" x="108" y="36" width="36" height="36"/>
  <use xlink:href="#_blank_v1" x="144" y="36" width="1" height="36"/>
  <use xlink:href="#_blank_v0" x="144" y="36" width="36" height="36"/>
  <use xlink:href="#_blank_v1" x="180" y="36" width="1" height="36"/>
  <use xlink:href="#_blank_v0" x="180" y="36" width="36" height="36"/>
  <use xlink:href="#_blank_v1" x="216" y="36" width="1" height="36"/>
  <use xlink:href="#_blank_v0" x="216" y="36" width="36" height="36"/>
  <use xlink:href="#_blank_v1" x="252" y="36" width="1" height="36"/>
  <use xlink:href="#_blank_v2" x="0" y="72" width="36" height="1"/>
  <use xlink:href="#_2B_v3" x="36" y="72" width="1" height="1"/>
  <use xlink:href="#_blank_v2" x="36" y="72" width="36" height="1"/>
  <use xlink:href="#_2B_v4" x="72" y="72" width="1" height="1"/>
  <use xlink:href="#_blank_v2" x="72" y="72" width="36" height="1"/>
  <use xlink:href="#_2B_v4" x="108" y="72" width="1" height="1"/>
  <use xlink:href="#_blank_v2" x="108" y="72" width="36" height="1"/>
  <use xlink:href="#_2B_v4" x="144" y="72" width="1" height="1"/>
  <use xlink:href="#_blank_v2" x="144" y="72" width="36" height="1"/>
  <use xlink:href="#_2B_v4" x="180" y="72" width="1" height="1"/>
  <use xlink:href="#_blank_v2" x="180" y="72" width="36" height="1"/>
  <use xlink:href="#_2B_v4" x="216" y="72" width="1" height="1"/>
  <use xlink:href="#_blank_v2" x="216" y="72" width="36" height="1"/>
  <use xlink:href="#_2B_v5" x="252" y="72" width="1" height="1"/>
  <use xlink:href="#_36_v0" x="0" y="72" width="36" height="36"/>
  <use xlink:href="#s_v0" x="36" y="72" width="1" height="36"/>
  <use xlink:href="#_blank_v0" x="36" y="72" width="36" height="36"/>
  <use xlink:href="#_blank_v1" x="72" y="72" width="1" height="36"/>
  <use xlink:href="#_blank_v0" x="72" y="72" width="36" height="36"/>
  <use xlink:href="#_blank_v1" x="108" y="72" width="1" height="36"/>
  <use xlink:href="#_blank_v0" x="108" y="72" width="36" height="36"/>
  <use xlink:href="#_blank_v1" x="144" y="72" width="1" height="36"/>
  <use xlink:href="#_blank_v0" x="144" y="72" width="36" height="36"/>
  <use xlink:href="#_blank_v1" x="180" y="72" width="1" height="36"/>
  <use xlink:href="#_blank_v0" x="180" y="72" width="36" height="36"/>
  <use xlink:href="#_blank_v1" x="216" y="72" width="1" height="36"/>
  <use xlink:href="#_blank_v0" x="216" y="72" width="36" height="36"/>
  <use xlink:href="#_blank_v1" x="252" y="72" width="1" height="36"/>
  <use xlink:href="#_blank_v2" x="0" y="108" width="36" height="1"/>
  <use xlink:href="#_2B_v6" x="36" y="108" width="1" height="1"/>
  <use xlink:href="#_blank_v2" x="36" y="108" width="36" height="1"/>
  <use xlink:href="#_2B_v4" x="72" y="108" width="1" height="1"/>
  <use xlink:href="#_blank_v2" x="72" y="108" width="36" height="1"/>
  <use xlink:href="#_2B_v4" x="108" y="108" width="1" height="1"/>
  <use xlink:href="#_blank_v2" x="108" y="108" width="36" height="1"/>
  <use xlink:href="#_2B_v4" x="144" y="108" width="1" height="1"/>
  <use xlink:href="#_blank_v2" x="144" y="108" width="36" height="1"/>
  <use xlink:href="#_2B_v4" x="180" y="108" width="1" height="1"/>
  <use xlink:href="#_blank_v2" x="180" y="108" width="36" height="1"/>
  <use xlink:href="#_2B_v4" x="216" y="108" width="1" height="1"/>
  <use xlink:href="#_blank_v2" x="216" y="108" width="36" height="1"/>
  <use xlink:href="#_2B_v5" x="252" y="108" width="1" height="1"/>
  <use xlink:href="#_35_v0" x="0" y="108" width="36" height="36"/>
  <use xlink:href="#_blank_v1" x="36" y="108" width="1" height="36"/>
  <use xlink:href="#_blank_v0" x="36" y="108" width="36" height="36"/>
  <use xlink:href="#_blank_v1" x="72" y="108" width="1" height="36"/>
  <use xlink:href="#_blank_v0" x="72" y="108" width="36" height="36"/>
  <use xlink:href="#_blank_v1" x="108" y="108" width="1" height="36"/>
  <use xlink:href="#_blank_v0" x="108" y="108" width="36" height="36"/>
  <use xlink:href="#_blank_v1" x="144" y="108" width="1" height="36"/>
  <use xlink:href="#_blank_v0" x="144" y="108" width="36" height="36"/>
  <use xlink:href="#_blank_v1" x="180" y="108" width="1" height="36"/>
  <use xlink:href="#_blank_v0" x="180" y="108" width="36" height="36"/>
  <use xlink:href="#_blank_v1" x="216" y="108" width="1" height="36"/>
  <use xlink:href="#_blank_v0" x="216" y="108" width="36" height="36"/>
  <use xlink:href="#_blank_v1" x="252" y="108" width="1" height="36"/>
  <use xlink:href="#_blank_v2" x="0" y="144" width="36" height="1"/>
  <use xlink:href="#_2B_v7" x="36" y="144" width="1" height="1"/>
  <use xlink:href="#_blank_v2" x="36" y="144" width="36" height="1"/>
  <use xlink:href="#_2B_v4" x="72" y="144" width="1" height="1"/>
  <use xlink:href="#_blank_v2" x="72" y="144" width="36" height="1"/>
  <use xlink:href="#_2B_v4" x="108" y="144" width="1" height="1"/>
  <use xlink:href="#_blank_v2" x="108" y="144" width="36" height="1"/>
  <use xlink:href="#_2B_v4" x="144" y="144" width="1" height="1"/>
  <use xlink:href="#_blank_v2" x="144" y="144" width="36" height="1"/>
  <use xlink:href="#_2B_v4" x="180" y="144" width="1" height="1"/>
  <use xlink:href="#_blank_v2" x="180" y="144" width="36" height="1"/>
  <use xlink:href="#_2B_v4" x="216" y="144" width="1" height="1"/>
  <use xlink:href="#_blank_v2" x="216" y="144" width="36" height="1"/>
  <use xlink:href="#_2B_v5" x="252" y="144" width="1" height="1"/>
  <use xlink:href="#_34_v0" x="0" y="144" width="36" height="36"/>
  <use xlink:href="#_blank_v1" x="36" y="144" width="1" height="36"/>
  <use xlink:href="#_blank_v0" x="36" y="144" width="36" height="36"/>
  <use xlink:href="#_blank_v1" x="72" y="144" width="1" height="36"/>
  <use xlink:href="#_blank_v0" x="72" y="144" width="36" height="36"/>
  <use xlink:href="#_blank_v1" x="108" y="144" width="1" height="36"/>
  <use xlink:href="#_blank_v0" x="108" y="144" width="36" height="36"/>
  <use xlink:href="#_blank_v1" x="144" y="144" width="1" height="36"/>
  <use xlink:href="#_blank_v0" x="144" y="144" width="36" height="36"/>
  <use xlink:href="#_blank_v1" x="180" y="144" width="1" height="36"/>
  <use xlink:href="#_blank_v0" x="180" y="144" width="36" height="36"/>
  <use xlink:href="#_blank_v1" x="216" y="144" width="1" height="36"/>
  <use xlink:href="#_blank_v0" x="216" y="144" width="36" height="36"/>
  <use xlink:href="#_blank_v1" x="252" y="144" width="1" height="36"/>
  <use xlink:href="#_blank_v2" x="0" y="180" width="36" height="1"/>
  <use xlink:href="#_2B_v7" x="36" y="180" width="1" height="1"/>
  <use xlink:href="#_blank_v2" x="36" y="180" width="36" height="1"/>
  <use xlink:href="#_2B_v4" x="72" y="180" width="1" height="1"/>
  <use xlink:href="#_blank_v2" x="72" y="180" width="36" height="1"/>
  <use xlink:href="#_2B_v4" x="108" y="180" width="1" height="1"/>
  <use xlink:href="#_blank_v2" x="108" y="180" width="36" height="1"/>
  <use xlink:href="#_2B_v4" x="144" y="180" width="1" height="1"/>
  <use xlink:href="#_blank_v2" x="144" y="180" width="36" height="1"/>
  <use xlink:href="#_2B_v4" x="180" y="180" width="1" height="1"/>
  <use xlink:href="#_blank_v2" x="180" y="180" width="36" height="1"/>
  <use xlink:href="#_2B_v4" x="216" y="180" width="1" height="1"/>
  <use xlink:href="#_blank_v2" x="216" y="180" width="36" height="1"/>
  <use xlink:href="#_2B_v5" x="252" y="180" width="1" height="1"/>
  <use xlink:href="#_36_v0" x="0" y="180" width="36" height="36"/>
  <use xlink:href="#_blank_v1" x="36" y="180" width="1" height="36"/>
  <use xlink:href="#_blank_v0" x="36" y="180" width="36" height="36"/>
  <use xlink:href="#_blank_v1" x="72" y="180" width="1" height="36"/>
  <use xlink:href="#_blank_v0" x="72" y="180" width="36" height="36"/>
  <use xlink:href="#_blank_v1" x="108" y="180" width="1" height="36"/>
  <use xlink:href="#_blank_v0" x="108" y="180" width="36" height="36"/>
  <use xlink:href="#_blank_v1" x="144" y="180" width="1" height="36"/>
  <use xlink:href="#_blank_v0" x="144" y="180" width="36" height="36"/>
  <use xlink:href="#_blank_v1" x="180" y="180" width="1" height="36"/>
  <use xlink:href="#_blank_v0" x="180" y="180" width="36" height="36"/>
  <use xlink:href="#_blank_v1" x="216" y="180" width="1" height="36"/>
  <use xlink:href="#_blank_v0" x="216" y="180" width="36" height="36"/>
  <use xlink:href="#_blank_v1" x="252" y="180" width="1" height="36"/>
  <use xlink:href="#_blank_v2" x="0" y="216" width="36" height="1"/>
  <use xlink:href="#_2B_v7" x="36" y="216" width="1" height="1"/>
  <use xlink:href="#_blank_v2" x="36" y="216" width="36" height="1"/>
  <use xlink:href="#_2B_v4" x="72" y="216" width="1" height="1"/>
  <use xlink:href="#_blank_v2" x="72" y="216" width="36" height="1"/>
  <use xlink:href="#_2B_v4" x="108" y="216" width="1" height="1"/>
  <use xlink:href="#_blank_v2" x="108" y="216" width="36" height="1"/>
  <use xlink:href="#_2B_v4" x="144" y="216" width="1" height="1"/>
  <use xlink:href="#_blank_v2" x="144" y="216" width="36" height="1"/>
  <use xlink:href="#_2B_v4" x="180" y="216" width="1" height="1"/>
  <use xlink:href="#_blank_v2" x="180" y="216" width="36" height="1"/>
  <use xlink:href="#_2B_v4" x="216" y="216" width="1" height="1"/>
  <use xlink:href="#_blank_v2" x="216" y="216" width="36" height="1"/>
  <use xlink:href="#_2B_v5" x="252" y="216" width="1" height="1"/>
  <use xlink:href="#_35_v0" x="0" y="216" width="36" height="36"/>
  <use xlink:href="#_blank_v1" x="36" y="216" width="1" height="36"/>
  <use xlink:href="#_blank_v0" x="36" y="216" width="36" height="36"/>
  <use xlink:href="#_blank_v1" x="72" y="216" width="1" height="36"/>
  <use xlink:href="#_blank_v0" x="72" y="216" width="36" height="36"/>
  <use xlink:href="#_blank_v1" x="108" y="216" width="1" height="36"/>
  <use xlink:href="#_blank_v0" x="108" y="216" width="36" height="36"/>
  <use xlink:href="#_blank_v1" x="144" y="216" width="1" height="36"/>
  <use xlink:href="#_blank_v0" x="144" y="216" width="36" height="36"/>
  <use xlink:href="#_blank_v1" x="180" y="216" width="1" height="36"/>
  <use xlink:href="#_blank_v0" x="180" y="216" width="36" height="36"/>
  <use xlink:href="#_blank_v1" x="216" y="216" width="1" height="36"/>
  <use xlink:href="#_blank_v0" x="216" y="216" width="36" height="36"/>
  <use xlink:href="#_blank_v1" x="252" y="216" width="1" height="36"/>
  <use xlink:href="#_blank_v2" x="0" y="252" width="36" height="1"/>
  <use xlink:href="#_2B_v8" x="36" y="252" width="1" height="1"/>
  <use xlink:href="#_blank_v2" x="36" y="252" width="36" height="1"/>
  <use xlink:href="#_2B_v9" x="72" y="252" width="1" height="1"/>
  <use xlink:href="#_blank_v2" x="72" y="252" width="36" height="1"/>
  <use xlink:href="#_2B_v9" x="108" y="252" width="1" height="1"/>
  <use xlink:href="#_blank_v2" x="108" y="252" width="36" height="1"/>
  <use xlink:href="#_2B_v9" x="144" y="252" width="1" height="1"/>
  <use xlink:href="#_blank_v2" x="144" y="252" width="36" height="1"/>
  <use xlink:href="#_2B_v9" x="180" y="252" width="1" height="1"/>
  <use xlink:href="#_blank_v2" x="180" y="252" width="36" height="1"/>
  <use xlink:href="#_2B_v9" x="216" y="252" width="1" height="1"/>
  <use xlink:href="#_blank_v2" x="216" y="252" width="36" height="1"/>
  <use xlink:href="#_2B_v10" x="252" y="252" width="1" height="1"/>
</svg>